<svg xmlns="http://www.w3.org/2000/svg" width="74.186" height="89.197" viewBox="923.801 2895.983 74.186 89.197"><g data-name="Group 47"><g data-name="Group 46" transform="translate(922 2894.182)" clip-path="url(#a)"><path d="M73.874 79.598h-58.56a2.112 2.112 0 0 1-2.113-2.113V3.913c0-1.167.946-2.112 2.112-2.112h37.45c.35 0 .687.14.936.388l21.9 21.9c.248.248.388.585.388.936v52.46a2.113 2.113 0 0 1-2.113 2.113Z" stroke-linejoin="round" stroke-linecap="round" stroke-width="3" stroke="#fff" fill="transparent" data-name="Path 162"/><path d="M64.587 79.598v9.288a2.113 2.113 0 0 1-2.113 2.112H3.914A2.113 2.113 0 0 1 1.8 88.886V15.313c0-1.166.946-2.112 2.113-2.112H13.2" stroke-linejoin="round" stroke-linecap="round" stroke-width="3" stroke="#fff" fill="transparent" data-name="Path 163"/><path d="M53.31 1.801v20.897a2.05 2.05 0 0 0 2.052 2.051h20.625" stroke-linejoin="round" stroke-linecap="round" stroke-width="3" stroke="#fff" fill="transparent" data-name="Path 164"/><path d="M30.839 41.743h21.869" stroke-linejoin="round" stroke-linecap="round" stroke-width="3" stroke="#fff" fill="transparent" data-name="Line 19"/><path d="M30.839 62.58h27.987" stroke-linejoin="round" stroke-linecap="round" stroke-width="3" stroke="#fff" fill="transparent" data-name="Line 20"/><path d="M30.839 52.162h27.987" stroke-linejoin="round" stroke-linecap="round" stroke-width="3" stroke="#fff" fill="transparent" data-name="Line 21"/></g></g><defs><clipPath id="a"><path d="M0 0h77.787v92.8H0V0z" data-name="Rectangle 90"/></clipPath></defs></svg>