<svg xmlns="http://www.w3.org/2000/svg" width="98.674" height="85.787" viewBox="564.516 2896 98.674 85.787"><g data-name="Group 43"><g data-name="Group 42" transform="translate(564.516 2896)" clip-path="url(#a)"><path d="M89.357 5.315C85.111 2.506 80.14.99 75.127.334 69.6-.39 63.862.077 58.501 1.586c-4.968 1.398-9.7 3.749-13.62 7.13-3.34 2.88-6.089 6.688-7.172 11.012-.562 2.246-.636 4.53-.29 6.814.42 2.774 1.643 5.435 3.345 7.653.467.608.95 1.201 1.475 1.76.195.207.395.408.598.606a37.16 37.16 0 0 1-1.604 4.754c-.86 2-1.88 3.945-3.099 5.751-.086.128-.185.251-.264.383-.734 1.228.209 2.988 1.69 2.887l.078-.008c.124-.005.251-.022.379-.054.949-.24 1.87-.694 2.762-1.081a138.356 138.356 0 0 0 3.802-1.734 433.917 433.917 0 0 0 7.539-3.648l.949-.47c5.957 1.7 12.302 1.84 18.386.77 5.153-.908 10.242-2.807 14.58-5.76 3.753-2.556 7.142-5.957 9.006-10.153.92-2.072 1.497-4.23 1.612-6.502a16.178 16.178 0 0 0-.907-6.192c-1.528-4.28-4.637-7.706-8.39-10.189m-.494 3.854c-.255-.19-.123-.093 0 0m6.261 13.528a16.275 16.275 0 0 1-.996 3.622 18.983 18.983 0 0 1-2.063 3.6c-.083.115-.167.23-.253.343-.027.036-.058.073-.087.11a23.06 23.06 0 0 1-1.18 1.368 26.088 26.088 0 0 1-2.956 2.708c-.108.082-.216.164-.325.244a31.274 31.274 0 0 1-2.525 1.68 34.405 34.405 0 0 1-4.097 2.08c-3.053 1.258-6.264 2.103-9.532 2.564a40.721 40.721 0 0 1-10.234.032 36.779 36.779 0 0 1-3.5-.66c-.61-.147-1.216-.31-1.817-.49-.564-.17-1.036-.116-1.558.138-.584.285-1.164.58-1.747.867a426.573 426.573 0 0 1-7.604 3.675c-.492.231-.985.46-1.479.688a40.771 40.771 0 0 0 2.066-4.803 36.447 36.447 0 0 0 1.176-4.01c.156-.671-.084-1.43-.625-1.845a19.073 19.073 0 0 1-1.916-1.995c-.09-.108-.178-.219-.266-.329l-.117-.156A16.694 16.694 0 0 1 41.672 29a15.272 15.272 0 0 1-.935-3.404 15.12 15.12 0 0 1 .002-3.487 16.28 16.28 0 0 1 .996-3.622 18.977 18.977 0 0 1 2.063-3.6c.083-.115.168-.229.253-.342.027-.036.059-.073.088-.11.375-.472.768-.928 1.179-1.368a26.09 26.09 0 0 1 2.957-2.708c.108-.082.215-.164.324-.245a31.288 31.288 0 0 1 2.525-1.68 34.39 34.39 0 0 1 4.098-2.08c3.052-1.257 6.263-2.102 9.53-2.563A40.681 40.681 0 0 1 75 3.762c2.859.402 5.672 1.128 8.342 2.23a28.114 28.114 0 0 1 5.62 3.252 20.875 20.875 0 0 1 .932.784c.385.343.758.7 1.117 1.071a19.274 19.274 0 0 1 1.228 1.398l.008.01.116.15-.11-.14a16.5 16.5 0 0 1 1.937 3.286 15.18 15.18 0 0 1 .936 3.402 15.08 15.08 0 0 1 0 3.492" fill="#fff" fill-rule="evenodd" data-name="Path 141"/><path d="m92.246 12.507-.01-.011-.02-.025.036.046-.006-.01" fill="#fff" fill-rule="evenodd" data-name="Path 142"/><path d="M72.22 22.495c-.014-.159-.04-.316-.065-.472a1.565 1.565 0 0 0-.057-.246c-.093-.281-.208-.572-.381-.815a4.391 4.391 0 0 0-.39-.493c-.15-.155-.331-.28-.502-.408-.236-.176-.515-.286-.79-.387a1.53 1.53 0 0 0-.241-.069 4.59 4.59 0 0 0-.674-.086c-.08-.003-.16.002-.24.01-.222.026-.453.044-.669.105-.203.058-.401.152-.592.238a1.61 1.61 0 0 0-.216.118c-.244.16-.494.345-.682.572a4.371 4.371 0 0 0-.378.502c-.113.186-.19.397-.269.597-.113.282-.143.589-.17.889a1.452 1.452 0 0 0-.002.26c.02.224.044.453.097.672.018.075.043.148.072.22.079.2.155.41.267.597.108.179.246.343.377.503a1.6 1.6 0 0 0 .168.178c.216.194.46.39.728.514.19.088.388.18.591.24.216.062.447.08.668.106.304.034.616-.018.914-.073.096-.018.188-.045.279-.08.206-.08.423-.16.615-.276a4.31 4.31 0 0 0 .532-.4 1.54 1.54 0 0 0 .186-.187c.321-.38.507-.698.68-1.167a1.52 1.52 0 0 0 .072-.261c.03-.174.06-.352.074-.53a1.505 1.505 0 0 0-.002-.37" fill="#fff" fill-rule="evenodd" data-name="Path 143"/><path d="M83.392 22.456c-.014-.158-.04-.316-.065-.47a1.586 1.586 0 0 0-.057-.247c-.093-.282-.209-.572-.382-.816a4.416 4.416 0 0 0-.39-.492c-.149-.155-.331-.28-.502-.408-.236-.177-.514-.286-.79-.387a1.525 1.525 0 0 0-.24-.069 4.592 4.592 0 0 0-.675-.086c-.08-.003-.16.002-.24.01-.221.026-.452.044-.668.105-.204.058-.402.151-.592.238a1.592 1.592 0 0 0-.217.118c-.243.16-.493.345-.682.571a4.376 4.376 0 0 0-.377.503c-.114.185-.19.397-.27.597-.113.281-.142.588-.17.889a1.464 1.464 0 0 0-.001.26c.019.224.043.453.096.672.018.075.043.147.072.22.08.2.156.41.268.597.107.178.245.343.376.503.052.063.107.123.168.178.217.194.46.39.728.514.19.088.389.18.592.24.215.062.446.08.667.105.304.035.617-.017.915-.072.095-.018.187-.046.278-.08.207-.08.424-.16.615-.276.19-.114.364-.26.533-.4.067-.057.128-.12.185-.188.321-.38.508-.698.68-1.166a1.5 1.5 0 0 0 .072-.262c.03-.174.06-.352.075-.53.006-.06.01-.122.009-.185 0-.061-.004-.123-.011-.186" fill="#fff" fill-rule="evenodd" data-name="Path 144"/><path d="M60.958 21.927a1.658 1.658 0 0 0-.071-.22c-.08-.2-.156-.41-.268-.597-.108-.179-.246-.343-.377-.503a1.602 1.602 0 0 0-.168-.178c-.216-.194-.46-.39-.728-.514-.19-.088-.388-.18-.591-.24-.216-.062-.447-.08-.668-.105-.304-.035-.616.017-.914.072a1.531 1.531 0 0 0-.279.08c-.206.08-.423.16-.615.276-.19.114-.364.259-.532.4-.068.057-.129.12-.186.187a3.54 3.54 0 0 0-.68 1.167 1.534 1.534 0 0 0-.072.261c-.03.174-.06.353-.074.53a1.497 1.497 0 0 0 .002.37c.014.16.04.318.064.473.014.083.031.165.058.246.092.281.208.572.382.815.119.169.246.342.39.493.148.155.33.28.501.408.236.177.514.286.79.387.078.03.159.053.241.069.22.042.449.077.674.086a1.6 1.6 0 0 0 .24-.01c.222-.026.453-.044.669-.105.203-.058.401-.151.592-.238.075-.035.147-.072.216-.118.244-.16.494-.345.682-.572.132-.158.27-.324.378-.502.113-.186.19-.397.27-.597.112-.281.142-.588.17-.889a1.467 1.467 0 0 0 0-.26 4.556 4.556 0 0 0-.096-.672" fill="#fff" fill-rule="evenodd" data-name="Path 145"/><path d="M60.59 64.976a1.057 1.057 0 0 0-.047-.02l-.045-.016c.134.077.195.1.21.1-.04-.02-.078-.044-.118-.064" fill="#fff" fill-rule="evenodd" data-name="Path 146"/><path d="M23.2 39.902c.007-.034.017-.066.023-.1.006-.031.01-.068.016-.104l.002-.037c-.057.196-.055.255-.04.24" fill="#fff" fill-rule="evenodd" data-name="Path 147"/><path d="m43.916 63.43-.006.004a1.9 1.9 0 0 1-.143.14.898.898 0 0 0 .149-.144" fill="#fff" fill-rule="evenodd" data-name="Path 148"/><path d="m14.81 59.916.002.002-.03-.04.028.038" fill="#fff" fill-rule="evenodd" data-name="Path 149"/><path d="m47.425 62.556-.01-.002-.053-.01h-.005l-.024-.004h-.003l-.063-.004c.22.047.219.035.158.02" fill="#fff" fill-rule="evenodd" data-name="Path 150"/><path d="m62.2 66.617-.023-.042c.033.094.053.144.063.165l-.04-.123" fill="#fff" fill-rule="evenodd" data-name="Path 151"/><path d="m61.252 65.38-.032-.029c-.017-.012-.033-.025-.05-.036-.036-.025-.074-.048-.112-.072.003.012.054.055.194.136" fill="#fff" fill-rule="evenodd" data-name="Path 152"/><path d="M6.072 23.26H6.07l-.093.006c.234-.01.195-.013.095-.007" fill="#fff" fill-rule="evenodd" data-name="Path 153"/><path d="M65.879 68.942c-.003-.736.002-1.449-.102-2.178a6.011 6.011 0 0 0-.441-1.51c-.482-1.142-1.265-2.06-2.258-2.79-.898-.661-1.944-.968-3.022-1.158l-6.837-1.208c-1.712-.302-3.422-.65-5.14-.904-1.287-.19-2.594-.153-3.84.259a8.239 8.239 0 0 0-3.233 1.964c-.494.492-.895 1.074-1.315 1.629-.32.422-.64.844-.958 1.267-.166.202-.33.404-.505.597a7.827 7.827 0 0 1-.661.65c-.123.084-.25.157-.38.226a2.807 2.807 0 0 1-.176.05c-.03.002-.062.004-.093.004-.048 0-.096-.004-.145-.007a3.834 3.834 0 0 1-.498-.149c-.095-.046-.19-.09-.283-.139a11.824 11.824 0 0 1-1.337-.84 27.328 27.328 0 0 1-.871-.648c-.14-.105-.277-.215-.415-.323a71.283 71.283 0 0 1-1.499-1.209 64.864 64.864 0 0 1-5.45-5.06 64.656 64.656 0 0 1-3.716-4.231 71.94 71.94 0 0 1-.728-.92l-.008-.008c.077.097-.053-.068-.086-.111l-.18-.237a21.972 21.972 0 0 1-1.087-1.52 9.664 9.664 0 0 1-.347-.59 6.846 6.846 0 0 1-.152-.297l-.015-.034a4.34 4.34 0 0 1-.15-.482c0-.006-.002-.012-.003-.017-.005-.051-.011-.102-.011-.152v-.076a2.4 2.4 0 0 1 .05-.19c.066-.125.135-.247.215-.365.066-.077.132-.154.202-.228a10.635 10.635 0 0 1 1.21-1.068l.73-.555c.492-.375.992-.744 1.476-1.13a7.441 7.441 0 0 0 2.117-2.738c.522-1.176.83-2.428.768-3.724a11.787 11.787 0 0 0-.19-1.493l-1.107-6.266c-.34-1.933-.678-3.867-1.023-5.8-.33-1.841-1.52-3.5-3.135-4.438-1.042-.607-2.226-.892-3.426-.895-1.28-.002-2.557-.013-3.836-.017-1.954-.006-3.92.062-5.87-.052-1.134-.066-2.251-.08-3.369.172-1.253.282-2.492.97-3.307 1.975-.813 1.001-1.21 2.12-1.375 3.387-.108.829-.053 1.66-.053 2.493.003 2.694.314 5.382.766 8.034.761 4.461 1.912 8.826 3.67 13.002 1.804 4.288 4.089 8.34 6.868 12.072A66.053 66.053 0 0 0 20.894 71.3c3.556 3.1 7.457 5.822 11.645 8 4.059 2.112 8.383 3.754 12.842 4.792a73.31 73.31 0 0 0 7.438 1.343c2.069.26 4.13.313 6.211.35.96.018 1.972-.05 2.88-.376 1.208-.432 2.156-1.164 2.9-2.19.045-.056.088-.113.128-.175.747-1.162 1.036-2.542 1.06-3.908.019-1.065-.086-2.131-.088-3.197-.003-2.332-.022-4.664-.031-6.996M36.219 65.664a1.249 1.249 0 0 1-.098-.04.52.52 0 0 1 .097.04M19.936 48.75c0-.02 0-.04.002-.059l.004-.009.008-.014-.014.082m.005-.103c.002-.012.004-.022.007-.022l.001.001-.008.02M3.75 24.645a.61.61 0 0 1-.034.082c.011-.037.024-.075.034-.082m57.658 57.234a.565.565 0 0 1 .104-.081c-.051.047-.096.086-.104.08m.129-.103c-.057.037-.112.076-.17.112a3.882 3.882 0 0 1-.256.147c-.049.026-.1.048-.149.074-.24.126.19-.08.186-.076-.13.122-.481.165-.652.205a5.42 5.42 0 0 1-.31.064l-.003.001c-.188.016-.374.033-.563.039-.361.012-.723-.001-1.084-.005-.937-.01-1.873-.016-2.809-.071a42.288 42.288 0 0 1-2.85-.265l-.203-.026c-.145-.02-.29-.04-.435-.062-4.46-.654-8.88-1.714-13.082-3.354a52.088 52.088 0 0 1-1.19-.482 53.723 53.723 0 0 1-4.462-2.157 56.81 56.81 0 0 1-7.41-4.785l-.204-.156-.198-.154a60.206 60.206 0 0 1-3.004-2.523 69.03 69.03 0 0 1-4.767-4.709 60.445 60.445 0 0 1-3.11-3.673l.015.02-.017-.022-.027-.035c-.133-.171-.075-.1 0-.002-.317-.429-.644-.85-.956-1.281a56.895 56.895 0 0 1-3.614-5.666 55.397 55.397 0 0 1-2.235-4.478c-.1-.224-.196-.45-.293-.675l-.034-.081a52.893 52.893 0 0 1-2.256-6.651 67.692 67.692 0 0 1-1.515-7.452l-.056-.396-.029-.225c-.077-.62-.143-1.24-.195-1.862-.111-1.31-.127-2.616-.15-3.928-.007-.348-.017-.695-.005-1.043a7.98 7.98 0 0 1 .033-.501c.016-.086.03-.172.048-.258.044-.2.1-.398.169-.59l.001-.006c.047-.091.092-.183.143-.272.05-.086.104-.169.16-.25.076-.084.151-.167.232-.245.042-.04.084-.079.128-.117.06-.04.222-.156.256-.176.12-.073.241-.14.367-.2l.022-.011.037-.013a5.084 5.084 0 0 1 .816-.22c.033-.006.077-.011.12-.016a8.044 8.044 0 0 1 .093-.007h.002c.19-.014.378-.033.568-.037 1.057-.022 2.115.086 3.172.09 1.91.01 3.821.012 5.732.023.678.004 1.356.007 2.034.008.254 0 .508-.004.762.017h.003c.115.02.23.045.343.074.186.047.382.15.571.195a4.89 4.89 0 0 1 .6.358c.17.154.337.306.49.477.065.073.123.151.187.223l-.122-.137c.033.04.072.089.097.127.122.187.224.382.324.581l.01.027a4.827 4.827 0 0 1 .211.8l.081.459.48 2.72 1.311 7.428c.102.574.206 1.147.304 1.722l.009.049c.004.045.009.09.012.136.011.144.018.288.019.432.002.211-.01.42-.028.63l.013-.045a.572.572 0 0 0-.016.082c-.003.032-.004.063-.008.094a.239.239 0 0 1-.03.11c-.022.105-.044.21-.07.314-.06.228-.138.447-.214.67l-.001.002-.01.019a6.181 6.181 0 0 1-.59 1.002 6.452 6.452 0 0 1-.853.848l-.036.03-.436.332-1.376 1.048c-1.529 1.167-3.098 2.589-3.12 4.669-.01 1.04.398 2.053.907 2.94.645 1.124 1.487 2.142 2.285 3.159a66.333 66.333 0 0 0 4.884 5.567 65.668 65.668 0 0 0 5.403 4.898c1.068.869 2.147 1.746 3.29 2.516.8.54 1.713 1.066 2.671 1.252 1.07.209 2.101.084 3.064-.446.863-.476 1.572-1.226 2.18-1.99.376-.473.736-.96 1.101-1.443.258-.34.54-.673.783-1.026l.05-.059c.083-.098.17-.192.26-.284.119-.123.263-.231.394-.347-.047.03-.027-.018.048-.072l.095-.067.028-.028-.022.024.053-.038c.104-.071.21-.14.317-.205a7.08 7.08 0 0 1 .63-.33l.105-.039a6.174 6.174 0 0 1 1.108-.282 6.248 6.248 0 0 1 1.138 0c-.03-.006-.064-.013-.104-.023.055.013.114.02.17.027.033.003.068.01.092.016l.243.043 1.004.177 7.256 1.282 3.006.53.694.123c.109.02.217.04.325.065.186.043.366.1.545.164a3.07 3.07 0 0 1-.06-.036c.032.02.069.035.105.051.023.008.047.015.07.024.066.024.113.06.095.061.072.038.145.075.216.117.045.027.09.057.134.086-.004-.014.048.008.099.052l.063.056a.836.836 0 0 0 .087.06l-.055-.032c.145.127.287.257.418.4.02.022.085.101.132.157l.058.082c.12.178.221.366.317.557a10.938 10.938 0 0 1-.042-.124c.018.053.042.105.061.157l.003.009.009.016c.033.068.055.152.033.107.016.05.034.098.049.147.07.234.107.469.156.707l-.044-.217c.01.059.022.137.025.19.007.129.007.258.007.387 0 .33.001.659.003.988.009 2.291.027 4.582.031 6.874.002 1.027.084 2.05.089 3.076.001.245-.005.49-.023.735l-.018.198a9.394 9.394 0 0 0-.003.057c-.014.064-.03.127-.043.183-.053.25-.175.5-.224.748a4.946 4.946 0 0 1-.267.471l.001.002-.014.02c-.01.015-.018.031-.027.047l-.004.006-.062.069a.172.172 0 0 0-.024.045c.002-.01.006-.019.01-.029-.06.066-.118.13-.181.192-.01.01-.077.077-.141.138" fill="#fff" fill-rule="evenodd" data-name="Path 154"/><path d="M20.412 24.55c-.064-.077-.107-.12 0 0" fill="#fff" fill-rule="evenodd" data-name="Path 155"/><path d="m61.858 81.444.015-.016c.031-.047.082-.106.093-.123l.013-.02c-.013-.01-.087.054-.12.16" fill="#fff" fill-rule="evenodd" data-name="Path 156"/><path d="M62.402 67.377c-.015-.083-.025-.126 0 0" fill="#fff" fill-rule="evenodd" data-name="Path 157"/></g></g><defs><clipPath id="a"><path d="M0 0h98.674v85.787H0V0z" data-name="Rectangle 88"/></clipPath></defs></svg>