<svg xmlns="http://www.w3.org/2000/svg" width="91.999" height="85.26" viewBox="1611.173 2594.355 91.999 85.26"><g data-name="Group 37"><path d="M1650.46 2608.56h29.426" stroke-linejoin="round" stroke-linecap="round" stroke-width="3" stroke="#fff" fill="transparent" data-name="Line 7"/><path d="M1664.084 2632.79h15.802" stroke-linejoin="round" stroke-linecap="round" stroke-width="3" stroke="#fff" fill="transparent" data-name="Line 8"/><path d="M1665.441 2620.659h14.445" stroke-linejoin="round" stroke-linecap="round" stroke-width="3" stroke="#fff" fill="transparent" data-name="Line 9"/><path d="M1665.353 2644.92h14.533" stroke-linejoin="round" stroke-linecap="round" stroke-width="3" stroke="#fff" fill="transparent" data-name="Line 10"/><path d="M1653.42 2657.05h26.466" stroke-linejoin="round" stroke-linecap="round" stroke-width="3" stroke="#fff" fill="transparent" data-name="Line 11"/><g data-name="Group 36"><g data-name="Group 35" transform="translate(1610 2593.182)" clip-path="url(#a)"><path d="M12.103 13.198V9.567a8.394 8.394 0 0 1 8.395-8.395h66.68" stroke-linejoin="round" stroke-linecap="round" stroke-width="3" stroke="#fff" fill="transparent" data-name="Path 118"/><path d="M12.103 74.208h0" stroke-linejoin="round" stroke-linecap="round" stroke-width="3" stroke="#fff" fill="transparent" data-name="Line 12"/><path d="M66 74.344v5.435a6.654 6.654 0 0 0 13.306 0V8.105a6.933 6.933 0 0 1 13.865 0v.33a6.932 6.932 0 0 1-6.932 6.933h-.252" stroke-linejoin="round" stroke-linecap="round" stroke-width="3" stroke="#fff" fill="transparent" data-name="Path 119"/><path d="M72.653 86.432h-60.55A6.653 6.653 0 0 1 5.45 79.78v-5.435h60.176" stroke-linejoin="round" stroke-linecap="round" stroke-width="3" stroke="#fff" fill="transparent" data-name="Path 120"/><path d="M39.44 39.751v-.041c-.001-2.352.97-4.598 2.753-6.133l1.318-1.134c.657-.565.82-1.517.387-2.268l-2.306-4.008a1.805 1.805 0 0 0-2.155-.806l-1.642.568c-2.226.77-4.659.477-6.693-.709-.027-.015-.054-.03-.081-.047-2.034-1.17-3.485-3.136-3.922-5.44l-.324-1.71a1.805 1.805 0 0 0-1.77-1.469l-4.625-.007a1.805 1.805 0 0 0-1.775 1.464l-.329 1.708c-.444 2.304-1.902 4.265-3.94 5.43l-.07.04c-2.04 1.18-4.475 1.465-6.698.686l-1.64-.574a1.806 1.806 0 0 0-2.159.798l-2.32 4a1.805 1.805 0 0 0 .38 2.27l1.313 1.139c1.776 1.54 2.742 3.788 2.73 6.138v.089c.002 2.353-.97 4.6-2.754 6.134l-1.317 1.133a1.806 1.806 0 0 0-.388 2.269l2.304 4.009a1.805 1.805 0 0 0 2.156.806l1.642-.568c2.226-.77 4.659-.476 6.693.71l.08.047c2.034 1.17 3.485 3.137 3.921 5.443l.324 1.708a1.805 1.805 0 0 0 1.77 1.47l4.624.008a1.805 1.805 0 0 0 1.776-1.463l.33-1.707c.444-2.304 1.902-4.266 3.94-5.429l.08-.047c2.039-1.179 4.473-1.464 6.696-.686l1.64.574a1.806 1.806 0 0 0 2.158-.799l2.32-4a1.806 1.806 0 0 0-.38-2.27l-1.314-1.139c-1.777-1.54-2.743-3.788-2.732-6.14v-.047Z" stroke-linejoin="round" stroke-linecap="round" stroke-width="3" stroke="#fff" fill="transparent" data-name="Path 121"/><path d="M30.967 39.831a8.312 8.312 0 1 1-16.621-.211 8.312 8.312 0 0 1 16.621.211Z" stroke-linejoin="round" stroke-linecap="round" stroke-width="3" stroke="#fff" fill="transparent" data-name="Path 122"/></g></g></g><defs><clipPath id="a"><path d="M0 0h94.344v87.605H0V0z" data-name="Rectangle 85"/></clipPath></defs></svg>