<svg xmlns="http://www.w3.org/2000/svg" width="85.844" height="82.779" viewBox="220.443 2897.504 85.844 82.779"><g data-name="Group 45"><g data-name="Group 44" transform="translate(218.938 2896)" clip-path="url(#a)"><path d="m9.908 55.88 7.125 24.1a5.797 5.797 0 0 0 7.106 4.102 5.791 5.791 0 0 0 4.104-7.104L22.12 56.266" stroke-linejoin="round" stroke-linecap="round" stroke-width="2.451" stroke="#fff" fill="transparent" data-name="Path 158"/><path d="M29.523 54.378H6.62c-2.814 0-5.116-2.302-5.116-5.117V34.486c0-2.814 2.302-5.117 5.116-5.117h22.902" stroke-linejoin="round" stroke-linecap="round" stroke-width="2.451" stroke="#fff" fill="transparent" data-name="Path 159"/><g data-name="Line 17"><path d="M29.522 29.368v25.009" fill="#fff" fill-rule="evenodd"/><path d="M29.522 29.368v25.009" stroke-linejoin="round" stroke-linecap="round" stroke="#fff" fill="transparent"/></g><path d="M29.522 29.368v25.009" stroke-linejoin="round" stroke-linecap="round" stroke-width="2.451" stroke="#fff" fill="transparent" data-name="Line 18"/><path d="M29.523 29.368v25.009c14.163 0 27.02 9.653 36.51 25.362 2.685 4.442 9.487 2.595 9.487-2.595V6.602c0-5.19-6.802-7.038-9.486-2.596-9.49 15.71-22.348 25.362-36.511 25.362Z" stroke-linejoin="round" stroke-linecap="round" stroke-width="2.451" stroke="#fff" fill="transparent" data-name="Path 160"/><path d="M76.348 30.873c6.075 0 11 4.925 11 11s-4.925 11-11 11" stroke-linejoin="round" stroke-linecap="round" stroke-width="2.451" stroke="#fff" fill="transparent" data-name="Path 161"/></g></g><defs><clipPath id="a"><path d="M0 0h88.852v85.787H0V0z" data-name="Rectangle 89"/></clipPath></defs></svg>