<svg xmlns="http://www.w3.org/2000/svg" width="90.285" height="90.334" viewBox="1612.358 2895.39 90.285 90.334"><g data-name="Group 41"><g data-name="Group 40" transform="translate(1611.1 2894.182)" clip-path="url(#a)"><path d="M1.257 46.3a45.142 45.142 0 1 1 0 .1z" stroke-linejoin="round" stroke-linecap="round" stroke-width="3" stroke="#fff" fill="transparent" data-name="Ellipse 3"/><path d="M61.624 48.515a8.911 8.911 0 1 0 17.822 0 8.911 8.911 0 0 0-17.822 0Z" stroke-linejoin="round" stroke-linecap="round" stroke-width="3" stroke="#fff" fill="transparent" data-name="Path 128"/><path d="M20.78 67.452a6.95 6.95 0 1 0 13.901 0 6.95 6.95 0 0 0-13.9 0Z" stroke-linejoin="round" stroke-linecap="round" stroke-width="3" stroke="#fff" fill="transparent" data-name="Path 129"/><path d="M39.448 24.98a6.95 6.95 0 1 0 13.9 0 6.95 6.95 0 0 0-13.9 0Z" stroke-linejoin="round" stroke-linecap="round" stroke-width="3" stroke="#fff" fill="transparent" data-name="Path 130"/><path d="M77.844 43.419a79.731 79.731 0 0 0 12.418-5.847" stroke-linejoin="round" stroke-linecap="round" stroke-width="3" stroke="#fff" fill="transparent" data-name="Path 131"/><path d="M2.585 37.6c12.239 7.122 27.4 11.336 43.815 11.336 5.233 0 10.339-.428 15.263-1.243" stroke-linejoin="round" stroke-linecap="round" stroke-width="3" stroke="#fff" fill="transparent" data-name="Path 132"/><path d="M70.28 39.609C68.926 21.759 62.316 7.2 53.577 1.959" stroke-linejoin="round" stroke-linecap="round" stroke-width="3" stroke="#fff" fill="transparent" data-name="Path 133"/><path d="M53.26 91.026c8.19-4.673 14.564-17.498 16.593-33.6" stroke-linejoin="round" stroke-linecap="round" stroke-width="3" stroke="#fff" fill="transparent" data-name="Path 134"/><path d="M27.355 74.988c3.057 7.559 7.298 13.25 12.185 16.038" stroke-linejoin="round" stroke-linecap="round" stroke-width="3" stroke="#fff" fill="transparent" data-name="Path 135"/><path d="M39.54 1.773c-9.988 5.698-17.276 23.521-17.276 44.626 0 5.275.456 10.345 1.294 15.072" stroke-linejoin="round" stroke-linecap="round" stroke-width="3" stroke="#fff" fill="transparent" data-name="Path 136"/><path d="M33.962 71.198c4.038.56 8.194.853 12.438.853 16.077 0 30.903-4.2 42.789-11.275" stroke-linejoin="round" stroke-linecap="round" stroke-width="3" stroke="#fff" fill="transparent" data-name="Path 137"/><path d="M3.608 60.774c5.042 3.002 10.612 5.486 16.583 7.351" stroke-linejoin="round" stroke-linecap="round" stroke-width="3" stroke="#fff" fill="transparent" data-name="Path 138"/><path d="M46.4 31.93v59.612" stroke-linejoin="round" stroke-linecap="round" stroke-width="3" stroke="#fff" fill="transparent" data-name="Line 15"/><path d="M46.4 1.257V18.03" stroke-linejoin="round" stroke-linecap="round" stroke-width="3" stroke="#fff" fill="transparent" data-name="Line 16"/><path d="M53.333 25.433c10.01-.97 19.2-4.015 26.849-8.568" stroke-linejoin="round" stroke-linecap="round" stroke-width="3" stroke="#fff" fill="transparent" data-name="Path 139"/><path d="M12.615 16.863c7.625 4.54 16.782 7.58 26.757 8.56" stroke-linejoin="round" stroke-linecap="round" stroke-width="3" stroke="#fff" fill="transparent" data-name="Path 140"/></g></g><defs><clipPath id="a"><path d="M0 0h92.8v92.8H0V0z" data-name="Rectangle 87"/></clipPath></defs></svg>